<?xml version="1.0" encoding="utf-8"?>
<!-- Generator: Adobe Illustrator 16.0.0, SVG Export Plug-In . SVG Version: 6.00 Build 0)  -->
<!DOCTYPE svg PUBLIC "-//W3C//DTD SVG 1.0//EN" "http://www.w3.org/TR/2001/REC-SVG-20010904/DTD/svg10.dtd">
<svg version="1.0" id="Layer_1" xmlns="http://www.w3.org/2000/svg" xmlns:xlink="http://www.w3.org/1999/xlink" x="0px" y="0px"
	 width="100px" height="100px" viewBox="0 0 100 100" enable-background="new 0 0 100 100" xml:space="preserve">
<path d="M89.999,19.43c-0.508-4.697-4.727-8.919-9.424-9.43l-7.858,12.571l0.004,0.003L57.16,38.128
	c-7.33-6.038-15.731-7.842-19.734-3.838c-3.498,3.496-6.498,7.162-9.014,10.833c-5.573,1.488-11.161,4.629-15.903,9.369
	c-5.211,5.212-2.04,16.813,7.07,25.931c9.116,9.108,20.718,12.279,25.928,7.07c4.746-4.746,7.877-10.332,9.372-15.904
	c3.672-2.517,7.337-5.515,10.833-9.021c4.004-3.997,2.197-12.399-3.838-19.727l15.563-15.56L89.999,19.43z M34.902,79.241
	L20.756,65.101l4.715-4.713l14.142,14.144L34.902,79.241z M50.227,59.202c-2.61,2.611-6.833,2.611-9.435,0.007
	c-2.603-2.601-2.601-6.826,0.007-9.434c2.598-2.601,6.821-2.598,9.422,0C52.824,52.383,52.824,56.604,50.227,59.202z"/>
</svg>
